<?xml version="1.0" encoding="UTF-8" standalone="no"?>
<svg
   width="32px"
   height="32px"
   stroke-width="2"
   viewBox="0 0 24 24"
   fill="none"
   color="#000000"
   version="1.1"
   id="svg1"
   sodipodi:docname="lock-z.svg"
   inkscape:version="1.4 (e7c3feb100, 2024-10-09)"
   xmlns:inkscape="http://www.inkscape.org/namespaces/inkscape"
   xmlns:sodipodi="http://sodipodi.sourceforge.net/DTD/sodipodi-0.dtd"
   xmlns="http://www.w3.org/2000/svg"
   xmlns:svg="http://www.w3.org/2000/svg">
  <defs
     id="defs1" />
  <sodipodi:namedview
     id="namedview1"
     pagecolor="#ffffff"
     bordercolor="#000000"
     borderopacity="0.25"
     inkscape:showpageshadow="2"
     inkscape:pageopacity="0.0"
     inkscape:pagecheckerboard="0"
     inkscape:deskcolor="#d1d1d1"
     inkscape:zoom="18.546875"
     inkscape:cx="8.3032856"
     inkscape:cy="13.668071"
     inkscape:window-width="2560"
     inkscape:window-height="1389"
     inkscape:window-x="0"
     inkscape:window-y="0"
     inkscape:window-maximized="1"
     inkscape:current-layer="svg1" />
  <path
     d="m 16,12 h 1.4 c 0.3314,0 0.6,0.2686 0.6,0.6 v 1.670444 M 14.346925,20 H 6.6 C 6.26863,20 6,19.7314 6,19.4 V 12.6 C 6,12.2686 6.26863,12 6.6,12 H 8 m 8,0 V 8 C 16,6.66667 15.2,4 12,4 8.8,4 8,6.66667 8,8 v 4 m 8,0 H 8"
     stroke="#000000"
     stroke-width="2"
     stroke-linecap="round"
     stroke-linejoin="round"
     id="path1"
     sodipodi:nodetypes="cssccssssccsssccc" />
  <path
     d="M 16.878599,21.1213 19,19 M 21.1213,16.8787 19,19 m 2.1213,-2.1213 h -4.2427 m 0,4.2426 h 4.2427"
     stroke="#000000"
     stroke-width="2"
     stroke-linecap="round"
     stroke-linejoin="round"
     id="path3"
     sodipodi:nodetypes="cccccccc" />
</svg>
